<?xml version="1.0" encoding="UTF-8"?>
<svg xmlns="http://www.w3.org/2000/svg" viewBox="0 0 512 512" width="512" height="512">
  <defs>
    <linearGradient id="favEmerald" x1="0%" y1="0%" x2="100%" y2="100%">
      <stop offset="0%" stop-color="#34d399"/>
      <stop offset="100%" stop-color="#10b981"/>
    </linearGradient>
    <linearGradient id="favTeal" x1="0%" y1="0%" x2="100%" y2="100%">
      <stop offset="0%" stop-color="#38bdf8"/>
      <stop offset="100%" stop-color="#0ea5e9"/>
    </linearGradient>
    <linearGradient id="favDiag" x1="100%" y1="0%" x2="0%" y2="100%">
      <stop offset="0%" stop-color="#10b981"/>
      <stop offset="50%" stop-color="#14b8a6"/>
      <stop offset="100%" stop-color="#0ea5e9"/>
    </linearGradient>
  </defs>

  <!-- Background disc for strong visibility -->
  <rect width="512" height="512" rx="128" fill="#0f172a"/>

  <!-- Top Bar -->
  <path d="M 100 156 C 100 138 114 124 132 124 L 380 124 C 398 124 412 138 412 156 C 412 174 398 188 380 188 L 132 188 C 114 188 100 174 100 156 Z" fill="url(#favEmerald)"/>

  <!-- Z Diagonal -->
  <path d="M 380 156 L 152 384 C 140 396 140 416 152 428 C 164 440 184 440 196 428 L 424 200 C 436 188 436 168 424 156 C 412 144 392 144 380 156 Z" fill="url(#favDiag)"/>

  <!-- Bottom Bar -->
  <path d="M 132 324 C 114 324 100 338 100 356 C 100 374 114 388 132 388 L 380 388 C 398 388 412 374 412 356 C 412 338 398 324 380 324 L 132 324 Z" fill="url(#favTeal)"/>

  <!-- Core Dot -->
  <circle cx="256" cy="256" r="32" fill="#ffffff"/>
  <circle cx="256" cy="256" r="16" fill="#0d9488"/>
</svg>