<svg version="1.0" xmlns="http://www.w3.org/2000/svg" xmlns:xlink="http://www.w3.org/1999/xlink" x="0" y="0" width="2400" height="386.09700750622784" viewBox="55.29080871582031 106.54630187988282 229.41838256835936 36.90739624023438" preserveAspectRatio="xMidYMid meet" color-interpolation-filters="sRGB"><g><defs><linearGradient id="92" x1="0%" y1="0%" x2="100%" y2="0%"><stop offset="0%" stop-color="#fa71cd"></stop> <stop offset="100%" stop-color="#9b59b6"></stop></linearGradient><linearGradient id="93" x1="0%" y1="0%" x2="100%" y2="0%"><stop offset="0%" stop-color="#f9d423"></stop> <stop offset="100%" stop-color="#f83600"></stop></linearGradient><linearGradient id="94" x1="0%" y1="0%" x2="100%" y2="0%"><stop offset="0%" stop-color="#0064d2"></stop> <stop offset="100%" stop-color="#1cb0f6"></stop></linearGradient><linearGradient id="95" x1="0%" y1="0%" x2="100%" y2="0%"><stop offset="0%" stop-color="#f00978"></stop> <stop offset="100%" stop-color="#3f51b1"></stop></linearGradient><linearGradient id="96" x1="0%" y1="0%" x2="100%" y2="0%"><stop offset="0%" stop-color="#7873f5"></stop> <stop offset="100%" stop-color="#ec77ab"></stop></linearGradient><linearGradient id="97" x1="0%" y1="0%" x2="100%" y2="0%"><stop offset="0%" stop-color="#f9d423"></stop> <stop offset="100%" stop-color="#e14fad"></stop></linearGradient><linearGradient id="98" x1="0%" y1="0%" x2="100%" y2="0%"><stop offset="0%" stop-color="#009efd"></stop> <stop offset="100%" stop-color="#2af598"></stop></linearGradient><linearGradient id="99" x1="0%" y1="0%" x2="100%" y2="0%"><stop offset="0%" stop-color="#ffcc00"></stop> <stop offset="100%" stop-color="#00b140"></stop></linearGradient><linearGradient id="100" x1="0%" y1="0%" x2="100%" y2="0%"><stop offset="0%" stop-color="#d51007"></stop> <stop offset="100%" stop-color="#ff8177"></stop></linearGradient><linearGradient id="102" x1="0%" y1="0%" x2="100%" y2="0%"><stop offset="0%" stop-color="#a2b6df"></stop> <stop offset="100%" stop-color="#0c3483"></stop></linearGradient><linearGradient id="103" x1="0%" y1="0%" x2="100%" y2="0%"><stop offset="0%" stop-color="#7ac5d8"></stop> <stop offset="100%" stop-color="#eea2a2"></stop></linearGradient><linearGradient id="104" x1="0%" y1="0%" x2="100%" y2="0%"><stop offset="0%" stop-color="#00ecbc"></stop> <stop offset="100%" stop-color="#007adf"></stop></linearGradient><linearGradient id="105" x1="0%" y1="0%" x2="100%" y2="0%"><stop offset="0%" stop-color="#b88746"></stop> <stop offset="100%" stop-color="#fdf5a6"></stop></linearGradient></defs><g fill="#333" class="iconlinesvg-g iconlinesvg" transform="translate(57.543676137924194,108.79550170898438)"><g class="tp-name"><g transform="translate(0, 0.6524902448120464)"><g fill="#333" transform="scale(1)"><path d="M22.42 0L3.32 0Q2.76 0 2.34-0.39L2.34-0.39Q1.95-0.81 1.95-1.37L1.95-1.37Q1.95-1.93 2.34-2.32L2.34-2.32Q2.76-2.74 3.32-2.74L3.32-2.74L22.42-2.74Q24.79-2.74 26.45-4.40L26.45-4.40Q28.13-6.08 28.13-8.45L28.13-8.45Q28.13-10.82 26.45-12.50L26.45-12.50Q24.79-14.19 22.42-14.19L22.42-14.19L10.40-14.19Q6.91-14.19 4.44-16.66L4.44-16.66Q1.95-19.15 1.95-22.64L1.95-22.64Q1.95-26.13 4.44-28.62L4.44-28.62Q6.91-31.09 10.40-31.09L10.40-31.09L29.50-31.09Q30.06-31.09 30.45-30.70L30.45-30.70Q30.87-30.28 30.87-29.72L30.87-29.72Q30.87-29.16 30.45-28.77L30.45-28.77Q30.06-28.38 29.50-28.38L29.50-28.38L10.40-28.38Q8.03-28.38 6.35-26.69L6.35-26.69Q4.69-25.01 4.69-22.64L4.69-22.64Q4.69-20.27 6.35-18.58L6.35-18.58Q8.03-16.90 10.40-16.90L10.40-16.90L22.42-16.90Q25.91-16.90 28.38-14.43L28.38-14.43Q30.87-11.94 30.87-8.45L30.87-8.45Q30.87-4.96 28.38-2.49L28.38-2.49Q25.91 0 22.42 0L22.42 0Z" transform="translate(-1.9536676854681856, 31.10401760905807)"></path></g></g><g transform="translate(32, 0.6524902448120464)"><g fill="#333" transform="scale(1)"><path d="M29.50-31.09L3.32-31.09Q2.76-31.09 2.34-30.70L2.34-30.70Q1.95-30.28 1.95-29.72L1.95-29.72Q1.95-29.16 2.34-28.77L2.34-28.77Q2.76-28.38 3.32-28.38L3.32-28.38L15.58-28.38L15.58-1.37Q15.58-0.81 16.00-0.39L16.00-0.39Q16.39 0 16.95 0L16.95 0Q17.51 0 17.92-0.39L17.92-0.39Q18.32-0.81 18.32-1.37L18.32-1.37L18.32-28.38L29.50-28.38Q30.06-28.38 30.45-28.77L30.45-28.77Q30.87-29.16 30.87-29.72L30.87-29.72Q30.87-30.28 30.45-30.70L30.45-30.70Q30.06-31.09 29.50-31.09L29.50-31.09Z" transform="translate(-1.9536676854681856, 31.10401760905807)"></path></g></g><g transform="translate(64, 0.6524902448120464)"><g fill="#333" transform="scale(1)"><path d="M28.13-16.90L4.69-16.90L4.69-21.00Q4.69-24.05 6.84-26.20L6.84-26.20Q9.01-28.38 12.04-28.38L12.04-28.38L20.78-28.38Q23.81-28.38 25.98-26.20L25.98-26.20Q28.13-24.05 28.13-21.00L28.13-21.00L28.13-16.90ZM20.78-31.09L12.04-31.09Q7.86-31.09 4.91-28.13L4.91-28.13Q1.95-25.18 1.95-21.00L1.95-21.00L1.95-1.37Q1.95-0.81 2.34-0.39L2.34-0.39Q2.76 0 3.32 0L3.32 0Q3.88 0 4.27-0.39L4.27-0.39Q4.69-0.81 4.69-1.37L4.69-1.37L4.69-14.19L28.13-14.19L28.13-1.37Q28.13-0.81 28.55-0.39L28.55-0.39Q28.94 0 29.50 0L29.50 0Q30.06 0 30.45-0.39L30.45-0.39Q30.87-0.81 30.87-1.37L30.87-1.37L30.87-21.00Q30.87-25.18 27.91-28.13L27.91-28.13Q24.96-31.09 20.78-31.09L20.78-31.09Z" transform="translate(-1.9536676854681856, 31.10401760905807)"></path></g></g><g transform="translate(96, 0.6524902448120464)"><g fill="#333" transform="scale(1)"><path d="M25.13 0L7.69 0Q5.32 0 3.64-1.69L3.64-1.69Q1.95-3.37 1.95-5.74L1.95-5.74L1.95-25.37Q1.95-27.74 3.64-29.40L3.64-29.40Q5.32-31.09 7.69-31.09L7.69-31.09L25.13-31.09Q27.50-31.09 29.18-29.40L29.18-29.40Q30.87-27.74 30.87-25.37L30.87-25.37L30.87-24.27Q30.87-23.71 30.45-23.30L30.45-23.30Q30.06-22.91 29.50-22.91L29.50-22.91Q28.94-22.91 28.55-23.30L28.55-23.30Q28.13-23.71 28.13-24.27L28.13-24.27L28.13-25.37Q28.13-26.59 27.25-27.47L27.25-27.47Q26.37-28.38 25.13-28.38L25.13-28.38L7.69-28.38Q6.45-28.38 5.57-27.47L5.57-27.47Q4.69-26.59 4.69-25.37L4.69-25.37L4.69-5.74Q4.69-4.49 5.57-3.61L5.57-3.61Q6.45-2.74 7.69-2.74L7.69-2.74L25.13-2.74Q26.37-2.74 27.25-3.61L27.25-3.61Q28.13-4.49 28.13-5.74L28.13-5.74L28.13-14.19L14.24-14.19Q13.65-14.19 13.26-14.58L13.26-14.58Q12.87-14.97 12.87-15.56L12.87-15.56Q12.87-16.12 13.26-16.51L13.26-16.51Q13.65-16.90 14.24-16.90L14.24-16.90L29.50-16.90Q30.06-16.90 30.45-16.51L30.45-16.51Q30.87-16.12 30.87-15.56L30.87-15.56L30.87-5.74Q30.87-3.37 29.18-1.69L29.18-1.69Q27.50 0 25.13 0L25.13 0Z" transform="translate(-1.9536676854681856, 31.10401760905807)"></path></g></g><g transform="translate(128, 0.6524902448120464)"><g fill="#333" transform="scale(1)"><path d="M4.69-14.19L29.50-14.19Q30.06-14.19 30.45-14.58L30.45-14.58Q30.87-14.97 30.87-15.56L30.87-15.56Q30.87-16.12 30.45-16.51L30.45-16.51Q30.06-16.90 29.50-16.90L29.50-16.90L4.69-16.90L4.69-28.38L29.50-28.38Q30.06-28.38 30.45-28.77L30.45-28.77Q30.87-29.16 30.87-29.72L30.87-29.72Q30.87-30.28 30.45-30.70L30.45-30.70Q30.06-31.09 29.50-31.09L29.50-31.09L3.32-31.09Q2.76-31.09 2.34-30.70L2.34-30.70Q1.95-30.28 1.95-29.72L1.95-29.72L1.95-1.37Q1.95-0.81 2.34-0.39L2.34-0.39Q2.76 0 3.32 0L3.32 0L29.50 0Q30.06 0 30.45-0.39L30.45-0.39Q30.87-0.81 30.87-1.37L30.87-1.37Q30.87-1.93 30.45-2.32L30.45-2.32Q30.06-2.74 29.50-2.74L29.50-2.74L4.69-2.74L4.69-14.19Z" transform="translate(-1.9536676854681856, 31.10401760905807)"></path></g></g><g transform="translate(160, 0)"><g><g class="imagesvg"><g><rect fill="#333" fill-opacity="0" stroke-width="2" x="0" y="0" width="32.40899809868216" height="32.40899809868216" class="image-rect"></rect> <svg x="0" y="0" width="32.40899809868216" height="32.40899809868216" filtersec="colorsb7549396749" class="image-svg-svg primary" style="overflow: visible;"><svg xmlns="http://www.w3.org/2000/svg" viewBox="0 -0.000003814697265625 112.33999633789062 112.34001159667969"><path d="M82.78 73.42a11.52 11.52 0 0 0-.82-17 11.72 11.72 0 0 0-15.69 1l-4.44 4.44-4.68 4.64a27.51 27.51 0 1 1-38.9-38.9l4.67-4.68A13.42 13.42 0 0 0 13.43 0 13.43 13.43 0 0 0 0 13.43v85.48a13.43 13.43 0 0 0 13.43 13.43H38.3a13.43 13.43 0 0 0 9.5-3.93z" fill="#15b788"></path><path d="M74 0a13.43 13.43 0 0 0-9.5 3.93l-35 35a11.51 11.51 0 0 0 16.34 16.26l4.67-4.68 4.27-4.26C65.36 35.66 82.6 35 93.5 45.26a27.53 27.53 0 0 1 .59 39.48l-4.67 4.68a13.42 13.42 0 0 0 9.49 22.92 13.43 13.43 0 0 0 13.43-13.43V13.43A13.43 13.43 0 0 0 98.91 0z" fill="#1395ba"></path></svg></svg> </g></g></g></g><g transform="translate(196, 0.6524902448120464)"><g fill="#333" transform="scale(1)"><path d="M29.50-31.09Q28.94-31.09 28.55-30.70L28.55-30.70Q28.13-30.28 28.13-29.72L28.13-29.72L28.13-4.91L20.68-13.19Q20.32-13.60 19.76-13.63L19.76-13.63Q19.19-13.68 18.78-13.28L18.78-13.28Q18.34-12.92 18.32-12.36L18.32-12.36Q18.29-11.77 18.66-11.36L18.66-11.36L28.47-0.44Q28.89 0 29.50 0L29.50 0Q29.74 0 29.99-0.10L29.99-0.10Q30.87-0.42 30.87-1.37L30.87-1.37L30.87-29.72Q30.87-30.28 30.45-30.70L30.45-30.70Q30.06-31.09 29.50-31.09L29.50-31.09ZM14.14-19.73L4.32-30.65Q3.71-31.33 2.83-30.99L2.83-30.99Q1.95-30.67 1.95-29.72L1.95-29.72L1.95-1.37Q1.95-0.81 2.34-0.39L2.34-0.39Q2.76 0 3.32 0L3.32 0Q3.88 0 4.27-0.39L4.27-0.39Q4.69-0.81 4.69-1.37L4.69-1.37L4.69-26.18L12.11-17.90Q12.50-17.49 13.07-17.46L13.07-17.46Q13.63-17.44 14.04-17.80L14.04-17.80Q14.46-18.19 14.51-18.76L14.51-18.76Q14.53-19.32 14.14-19.73L14.14-19.73Z" transform="translate(-1.9536676854681854, 31.10401760905807)"></path></g></g></g> </g><defs v-gra="od"></defs></g></svg>