<svg version="1.0" xmlns="http://www.w3.org/2000/svg" xmlns:xlink="http://www.w3.org/1999/xlink" x="0" y="0" width="2400" height="534.186335319254" viewBox="55.29080871582031 99.46829895019532 229.41838256835936 51.06340209960938" preserveAspectRatio="xMidYMid meet" color-interpolation-filters="sRGB"><g><defs><linearGradient id="92" x1="0%" y1="0%" x2="100%" y2="0%"><stop offset="0%" stop-color="#fa71cd"></stop> <stop offset="100%" stop-color="#9b59b6"></stop></linearGradient><linearGradient id="93" x1="0%" y1="0%" x2="100%" y2="0%"><stop offset="0%" stop-color="#f9d423"></stop> <stop offset="100%" stop-color="#f83600"></stop></linearGradient><linearGradient id="94" x1="0%" y1="0%" x2="100%" y2="0%"><stop offset="0%" stop-color="#0064d2"></stop> <stop offset="100%" stop-color="#1cb0f6"></stop></linearGradient><linearGradient id="95" x1="0%" y1="0%" x2="100%" y2="0%"><stop offset="0%" stop-color="#f00978"></stop> <stop offset="100%" stop-color="#3f51b1"></stop></linearGradient><linearGradient id="96" x1="0%" y1="0%" x2="100%" y2="0%"><stop offset="0%" stop-color="#7873f5"></stop> <stop offset="100%" stop-color="#ec77ab"></stop></linearGradient><linearGradient id="97" x1="0%" y1="0%" x2="100%" y2="0%"><stop offset="0%" stop-color="#f9d423"></stop> <stop offset="100%" stop-color="#e14fad"></stop></linearGradient><linearGradient id="98" x1="0%" y1="0%" x2="100%" y2="0%"><stop offset="0%" stop-color="#009efd"></stop> <stop offset="100%" stop-color="#2af598"></stop></linearGradient><linearGradient id="99" x1="0%" y1="0%" x2="100%" y2="0%"><stop offset="0%" stop-color="#ffcc00"></stop> <stop offset="100%" stop-color="#00b140"></stop></linearGradient><linearGradient id="100" x1="0%" y1="0%" x2="100%" y2="0%"><stop offset="0%" stop-color="#d51007"></stop> <stop offset="100%" stop-color="#ff8177"></stop></linearGradient><linearGradient id="102" x1="0%" y1="0%" x2="100%" y2="0%"><stop offset="0%" stop-color="#a2b6df"></stop> <stop offset="100%" stop-color="#0c3483"></stop></linearGradient><linearGradient id="103" x1="0%" y1="0%" x2="100%" y2="0%"><stop offset="0%" stop-color="#7ac5d8"></stop> <stop offset="100%" stop-color="#eea2a2"></stop></linearGradient><linearGradient id="104" x1="0%" y1="0%" x2="100%" y2="0%"><stop offset="0%" stop-color="#00ecbc"></stop> <stop offset="100%" stop-color="#007adf"></stop></linearGradient><linearGradient id="105" x1="0%" y1="0%" x2="100%" y2="0%"><stop offset="0%" stop-color="#b88746"></stop> <stop offset="100%" stop-color="#fdf5a6"></stop></linearGradient></defs><g fill="#feffff" class="iconlinesvg-g iconlinesvg" transform="translate(57.543676137924194,101.71750259399414)"><g class="tp-name" transform="translate(0,0)"><g transform="translate(0, 0.6524902448120464)"><g fill="#feffff" transform="scale(1)"><path d="M22.42 0L3.32 0Q2.76 0 2.34-0.39L2.34-0.39Q1.95-0.81 1.95-1.37L1.95-1.37Q1.95-1.93 2.34-2.32L2.34-2.32Q2.76-2.74 3.32-2.74L3.32-2.74L22.42-2.74Q24.79-2.74 26.45-4.40L26.45-4.40Q28.13-6.08 28.13-8.45L28.13-8.45Q28.13-10.82 26.45-12.50L26.45-12.50Q24.79-14.19 22.42-14.19L22.42-14.19L10.40-14.19Q6.91-14.19 4.44-16.66L4.44-16.66Q1.95-19.15 1.95-22.64L1.95-22.64Q1.95-26.13 4.44-28.62L4.44-28.62Q6.91-31.09 10.40-31.09L10.40-31.09L29.50-31.09Q30.06-31.09 30.45-30.70L30.45-30.70Q30.87-30.28 30.87-29.72L30.87-29.72Q30.87-29.16 30.45-28.77L30.45-28.77Q30.06-28.38 29.50-28.38L29.50-28.38L10.40-28.38Q8.03-28.38 6.35-26.69L6.35-26.69Q4.69-25.01 4.69-22.64L4.69-22.64Q4.69-20.27 6.35-18.58L6.35-18.58Q8.03-16.90 10.40-16.90L10.40-16.90L22.42-16.90Q25.91-16.90 28.38-14.43L28.38-14.43Q30.87-11.94 30.87-8.45L30.87-8.45Q30.87-4.96 28.38-2.49L28.38-2.49Q25.91 0 22.42 0L22.42 0Z" transform="translate(-1.9536676854681856, 31.10401760905807)"></path></g></g><g transform="translate(32, 0.6524902448120464)"><g fill="#feffff" transform="scale(1)"><path d="M29.50-31.09L3.32-31.09Q2.76-31.09 2.34-30.70L2.34-30.70Q1.95-30.28 1.95-29.72L1.95-29.72Q1.95-29.16 2.34-28.77L2.34-28.77Q2.76-28.38 3.32-28.38L3.32-28.38L15.58-28.38L15.58-1.37Q15.58-0.81 16.00-0.39L16.00-0.39Q16.39 0 16.95 0L16.95 0Q17.51 0 17.92-0.39L17.92-0.39Q18.32-0.81 18.32-1.37L18.32-1.37L18.32-28.38L29.50-28.38Q30.06-28.38 30.45-28.77L30.45-28.77Q30.87-29.16 30.87-29.72L30.87-29.72Q30.87-30.28 30.45-30.70L30.45-30.70Q30.06-31.09 29.50-31.09L29.50-31.09Z" transform="translate(-1.9536676854681856, 31.10401760905807)"></path></g></g><g transform="translate(64, 0.6524902448120464)"><g fill="#feffff" transform="scale(1)"><path d="M28.13-16.90L4.69-16.90L4.69-21.00Q4.69-24.05 6.84-26.20L6.84-26.20Q9.01-28.38 12.04-28.38L12.04-28.38L20.78-28.38Q23.81-28.38 25.98-26.20L25.98-26.20Q28.13-24.05 28.13-21.00L28.13-21.00L28.13-16.90ZM20.78-31.09L12.04-31.09Q7.86-31.09 4.91-28.13L4.91-28.13Q1.95-25.18 1.95-21.00L1.95-21.00L1.95-1.37Q1.95-0.81 2.34-0.39L2.34-0.39Q2.76 0 3.32 0L3.32 0Q3.88 0 4.27-0.39L4.27-0.39Q4.69-0.81 4.69-1.37L4.69-1.37L4.69-14.19L28.13-14.19L28.13-1.37Q28.13-0.81 28.55-0.39L28.55-0.39Q28.94 0 29.50 0L29.50 0Q30.06 0 30.45-0.39L30.45-0.39Q30.87-0.81 30.87-1.37L30.87-1.37L30.87-21.00Q30.87-25.18 27.91-28.13L27.91-28.13Q24.96-31.09 20.78-31.09L20.78-31.09Z" transform="translate(-1.9536676854681856, 31.10401760905807)"></path></g></g><g transform="translate(96, 0.6524902448120464)"><g fill="#feffff" transform="scale(1)"><path d="M25.13 0L7.69 0Q5.32 0 3.64-1.69L3.64-1.69Q1.95-3.37 1.95-5.74L1.95-5.74L1.95-25.37Q1.95-27.74 3.64-29.40L3.64-29.40Q5.32-31.09 7.69-31.09L7.69-31.09L25.13-31.09Q27.50-31.09 29.18-29.40L29.18-29.40Q30.87-27.74 30.87-25.37L30.87-25.37L30.87-24.27Q30.87-23.71 30.45-23.30L30.45-23.30Q30.06-22.91 29.50-22.91L29.50-22.91Q28.94-22.91 28.55-23.30L28.55-23.30Q28.13-23.71 28.13-24.27L28.13-24.27L28.13-25.37Q28.13-26.59 27.25-27.47L27.25-27.47Q26.37-28.38 25.13-28.38L25.13-28.38L7.69-28.38Q6.45-28.38 5.57-27.47L5.57-27.47Q4.69-26.59 4.69-25.37L4.69-25.37L4.69-5.74Q4.69-4.49 5.57-3.61L5.57-3.61Q6.45-2.74 7.69-2.74L7.69-2.74L25.13-2.74Q26.37-2.74 27.25-3.61L27.25-3.61Q28.13-4.49 28.13-5.74L28.13-5.74L28.13-14.19L14.24-14.19Q13.65-14.19 13.26-14.58L13.26-14.58Q12.87-14.97 12.87-15.56L12.87-15.56Q12.87-16.12 13.26-16.51L13.26-16.51Q13.65-16.90 14.24-16.90L14.24-16.90L29.50-16.90Q30.06-16.90 30.45-16.51L30.45-16.51Q30.87-16.12 30.87-15.56L30.87-15.56L30.87-5.74Q30.87-3.37 29.18-1.69L29.18-1.69Q27.50 0 25.13 0L25.13 0Z" transform="translate(-1.9536676854681856, 31.10401760905807)"></path></g></g><g transform="translate(128, 0.6524902448120464)"><g fill="#feffff" transform="scale(1)"><path d="M4.69-14.19L29.50-14.19Q30.06-14.19 30.45-14.58L30.45-14.58Q30.87-14.97 30.87-15.56L30.87-15.56Q30.87-16.12 30.45-16.51L30.45-16.51Q30.06-16.90 29.50-16.90L29.50-16.90L4.69-16.90L4.69-28.38L29.50-28.38Q30.06-28.38 30.45-28.77L30.45-28.77Q30.87-29.16 30.87-29.72L30.87-29.72Q30.87-30.28 30.45-30.70L30.45-30.70Q30.06-31.09 29.50-31.09L29.50-31.09L3.32-31.09Q2.76-31.09 2.34-30.70L2.34-30.70Q1.95-30.28 1.95-29.72L1.95-29.72L1.95-1.37Q1.95-0.81 2.34-0.39L2.34-0.39Q2.76 0 3.32 0L3.32 0L29.50 0Q30.06 0 30.45-0.39L30.45-0.39Q30.87-0.81 30.87-1.37L30.87-1.37Q30.87-1.93 30.45-2.32L30.45-2.32Q30.06-2.74 29.50-2.74L29.50-2.74L4.69-2.74L4.69-14.19Z" transform="translate(-1.9536676854681856, 31.10401760905807)"></path></g></g><g transform="translate(160, 0)"><g><g class="imagesvg"><g><rect fill="#feffff" fill-opacity="0" stroke-width="2" x="0" y="0" width="32.40899809868216" height="32.40899809868216" class="image-rect"></rect> <svg x="0" y="0" width="32.40899809868216" height="32.40899809868216" filtersec="colorsb2492847841" class="image-svg-svg primary" style="overflow: visible;"><svg xmlns="http://www.w3.org/2000/svg" viewBox="0 -0.000003814697265625 112.33999633789062 112.34001159667969"><path d="M82.78 73.42a11.52 11.52 0 0 0-.82-17 11.72 11.72 0 0 0-15.69 1l-4.44 4.44-4.68 4.64a27.51 27.51 0 1 1-38.9-38.9l4.67-4.68A13.42 13.42 0 0 0 13.43 0 13.43 13.43 0 0 0 0 13.43v85.48a13.43 13.43 0 0 0 13.43 13.43H38.3a13.43 13.43 0 0 0 9.5-3.93z" fill="#15b788"></path><path d="M74 0a13.43 13.43 0 0 0-9.5 3.93l-35 35a11.51 11.51 0 0 0 16.34 16.26l4.67-4.68 4.27-4.26C65.36 35.66 82.6 35 93.5 45.26a27.53 27.53 0 0 1 .59 39.48l-4.67 4.68a13.42 13.42 0 0 0 9.49 22.92 13.43 13.43 0 0 0 13.43-13.43V13.43A13.43 13.43 0 0 0 98.91 0z" fill="#1395ba"></path></svg></svg> </g></g></g></g><g transform="translate(196, 0.6524902448120464)"><g fill="#feffff" transform="scale(1)"><path d="M29.50-31.09Q28.94-31.09 28.55-30.70L28.55-30.70Q28.13-30.28 28.13-29.72L28.13-29.72L28.13-4.91L20.68-13.19Q20.32-13.60 19.76-13.63L19.76-13.63Q19.19-13.68 18.78-13.28L18.78-13.28Q18.34-12.92 18.32-12.36L18.32-12.36Q18.29-11.77 18.66-11.36L18.66-11.36L28.47-0.44Q28.89 0 29.50 0L29.50 0Q29.74 0 29.99-0.10L29.99-0.10Q30.87-0.42 30.87-1.37L30.87-1.37L30.87-29.72Q30.87-30.28 30.45-30.70L30.45-30.70Q30.06-31.09 29.50-31.09L29.50-31.09ZM14.14-19.73L4.32-30.65Q3.71-31.33 2.83-30.99L2.83-30.99Q1.95-30.67 1.95-29.72L1.95-29.72L1.95-1.37Q1.95-0.81 2.34-0.39L2.34-0.39Q2.76 0 3.32 0L3.32 0Q3.88 0 4.27-0.39L4.27-0.39Q4.69-0.81 4.69-1.37L4.69-1.37L4.69-26.18L12.11-17.90Q12.50-17.49 13.07-17.46L13.07-17.46Q13.63-17.44 14.04-17.80L14.04-17.80Q14.46-18.19 14.51-18.76L14.51-18.76Q14.53-19.32 14.14-19.73L14.14-19.73Z" transform="translate(-1.9536676854681854, 31.10401760905807)"></path></g></g></g> <g fill-rule="" class="tp-slogan" fill="#feffff" transform="translate(5,38.40899658203125)"><rect x="0" height="1" y="3.580000400543213" width="35.899993896484375"></rect> <rect height="1" y="3.580000400543213" width="35.899993896484375" x="179.01998901367188"></rect> <g transform="translate(38.899993896484375,0)"><g transform="scale(1)"><path d="M2.35-3.05L2.35 0L3.36 0L3.36-3.05L5.72-7.87L4.68-7.87L3.67-5.65C3.55-5.36 3.42-5.08 3.29-4.80C3.15-4.52 3.02-4.23 2.88-3.94L2.83-3.94C2.70-4.23 2.57-4.52 2.45-4.80C2.33-5.08 2.20-5.36 2.08-5.65L1.06-7.87L-0.01-7.87ZM9.53 0.14C10.02 0.14 10.48 0.05 10.89-0.14C11.30-0.34 11.66-0.61 11.96-0.97C12.26-1.32 12.49-1.75 12.65-2.26C12.82-2.77 12.90-3.34 12.90-3.97C12.90-4.60 12.82-5.16 12.65-5.66C12.49-6.16 12.26-6.58 11.96-6.93C11.66-7.28 11.30-7.55 10.89-7.73C10.48-7.92 10.02-8.02 9.53-8.02C9.03-8.02 8.58-7.92 8.17-7.74C7.75-7.56 7.40-7.29 7.10-6.94C6.81-6.59 6.58-6.17 6.41-5.67C6.25-5.17 6.17-4.60 6.17-3.97C6.17-3.34 6.25-2.77 6.41-2.26C6.58-1.75 6.81-1.32 7.10-0.97C7.40-0.61 7.75-0.34 8.17-0.14C8.58 0.05 9.03 0.14 9.53 0.14ZM9.53-0.73C9.18-0.73 8.86-0.81 8.57-0.96C8.29-1.11 8.05-1.33 7.84-1.61C7.64-1.90 7.48-2.24 7.37-2.63C7.26-3.03 7.20-3.48 7.20-3.97C7.20-4.46 7.26-4.90 7.37-5.29C7.48-5.68 7.64-6.02 7.84-6.29C8.05-6.56 8.29-6.77 8.57-6.92C8.86-7.07 9.18-7.14 9.53-7.14C9.88-7.14 10.20-7.07 10.48-6.92C10.77-6.77 11.01-6.56 11.21-6.29C11.42-6.02 11.58-5.68 11.69-5.29C11.80-4.90 11.86-4.46 11.86-3.97C11.86-3.48 11.80-3.03 11.69-2.63C11.58-2.24 11.42-1.90 11.21-1.61C11.01-1.33 10.77-1.11 10.48-0.96C10.20-0.81 9.88-0.73 9.53-0.73ZM14.56-7.87L14.56-3.25C14.56-2.62 14.63-2.09 14.77-1.66C14.92-1.22 15.11-0.87 15.37-0.61C15.62-0.34 15.92-0.15 16.27-0.03C16.61 0.09 16.99 0.14 17.39 0.14C17.79 0.14 18.16 0.09 18.50-0.03C18.85-0.15 19.15-0.34 19.40-0.61C19.65-0.87 19.85-1.22 19.99-1.66C20.14-2.09 20.21-2.62 20.21-3.25L20.21-7.87L19.25-7.87L19.25-3.23C19.25-2.76 19.20-2.36 19.10-2.04C19.01-1.72 18.88-1.46 18.71-1.27C18.54-1.08 18.34-0.94 18.12-0.86C17.90-0.77 17.65-0.73 17.39-0.73C17.13-0.73 16.89-0.77 16.67-0.86C16.44-0.94 16.25-1.08 16.09-1.27C15.92-1.46 15.79-1.72 15.70-2.04C15.60-2.36 15.55-2.76 15.55-3.23L15.55-7.87ZM23.33-4.14L23.33-7.07L24.65-7.07C25.26-7.07 25.74-6.96 26.06-6.76C26.39-6.55 26.56-6.18 26.56-5.66C26.56-5.15 26.39-4.77 26.06-4.52C25.74-4.27 25.26-4.14 24.65-4.14ZM26.65 0L27.78 0L25.79-3.43C26.32-3.57 26.75-3.82 27.07-4.19C27.39-4.56 27.55-5.05 27.55-5.66C27.55-6.07 27.48-6.42 27.35-6.70C27.21-6.98 27.02-7.20 26.78-7.38C26.53-7.56 26.24-7.68 25.90-7.76C25.56-7.83 25.19-7.87 24.79-7.87L22.33-7.87L22.33 0L23.33 0L23.33-3.32L24.76-3.32ZM30.92-7.87L32.59 0L33.78 0L34.94-4.74C35.01-5.04 35.07-5.34 35.14-5.63C35.21-5.93 35.28-6.22 35.34-6.53L35.39-6.53C35.45-6.22 35.51-5.93 35.57-5.63C35.63-5.34 35.70-5.04 35.77-4.74L36.96 0L38.16 0L39.79-7.87L38.83-7.87L38.00-3.59C37.92-3.16 37.85-2.74 37.78-2.32C37.70-1.90 37.63-1.48 37.56-1.04L37.51-1.04C37.42-1.48 37.32-1.90 37.22-2.33C37.13-2.75 37.03-3.17 36.94-3.59L35.84-7.87L34.93-7.87L33.84-3.59C33.75-3.16 33.66-2.74 33.56-2.32C33.47-1.90 33.38-1.48 33.29-1.04L33.24-1.04C33.17-1.48 33.09-1.90 33.01-2.32C32.93-2.73 32.86-3.16 32.78-3.59L31.96-7.87ZM43.99 0.14C44.49 0.14 44.94 0.05 45.35-0.14C45.77-0.34 46.12-0.61 46.42-0.97C46.72-1.32 46.95-1.75 47.12-2.26C47.28-2.77 47.36-3.34 47.36-3.97C47.36-4.60 47.28-5.16 47.12-5.66C46.95-6.16 46.72-6.58 46.42-6.93C46.12-7.28 45.77-7.55 45.35-7.73C44.94-7.92 44.49-8.02 43.99-8.02C43.50-8.02 43.04-7.92 42.63-7.74C42.22-7.56 41.86-7.29 41.57-6.94C41.27-6.59 41.04-6.17 40.88-5.67C40.71-5.17 40.63-4.60 40.63-3.97C40.63-3.34 40.71-2.77 40.88-2.26C41.04-1.75 41.27-1.32 41.57-0.97C41.86-0.61 42.22-0.34 42.63-0.14C43.04 0.05 43.50 0.14 43.99 0.14ZM43.99-0.73C43.64-0.73 43.32-0.81 43.04-0.96C42.75-1.11 42.51-1.33 42.31-1.61C42.10-1.90 41.94-2.24 41.83-2.63C41.72-3.03 41.66-3.48 41.66-3.97C41.66-4.46 41.72-4.90 41.83-5.29C41.94-5.68 42.10-6.02 42.31-6.29C42.51-6.56 42.75-6.77 43.04-6.92C43.32-7.07 43.64-7.14 43.99-7.14C44.34-7.14 44.66-7.07 44.95-6.92C45.23-6.77 45.47-6.56 45.68-6.29C45.88-6.02 46.04-5.68 46.15-5.29C46.26-4.90 46.32-4.46 46.32-3.97C46.32-3.48 46.26-3.03 46.15-2.63C46.04-2.24 45.88-1.90 45.68-1.61C45.47-1.33 45.23-1.11 44.95-0.96C44.66-0.81 44.34-0.73 43.99-0.73ZM50.05-4.14L50.05-7.07L51.37-7.07C51.99-7.07 52.46-6.96 52.79-6.76C53.12-6.55 53.28-6.18 53.28-5.66C53.28-5.15 53.12-4.77 52.79-4.52C52.46-4.27 51.99-4.14 51.37-4.14ZM53.38 0L54.50 0L52.51-3.43C53.05-3.57 53.48-3.82 53.80-4.19C54.12-4.56 54.28-5.05 54.28-5.66C54.28-6.07 54.21-6.42 54.07-6.70C53.94-6.98 53.75-7.20 53.50-7.38C53.26-7.56 52.97-7.68 52.63-7.76C52.29-7.83 51.92-7.87 51.52-7.87L49.06-7.87L49.06 0L50.05 0L50.05-3.32L51.48-3.32ZM56.03-7.87L56.03 0L60.47 0L60.47-0.85L57.02-0.85L57.02-7.87ZM61.86-7.87L61.86 0L63.88 0C64.47 0 64.99-0.09 65.45-0.27C65.90-0.45 66.29-0.71 66.60-1.05C66.91-1.39 67.15-1.81 67.31-2.30C67.47-2.79 67.55-3.35 67.55-3.97C67.55-5.23 67.23-6.19 66.60-6.86C65.97-7.54 65.04-7.87 63.83-7.87ZM63.76-0.82L62.86-0.82L62.86-7.06L63.76-7.06C64.68-7.06 65.37-6.79 65.83-6.26C66.29-5.74 66.52-4.97 66.52-3.97C66.52-2.97 66.29-2.20 65.83-1.64C65.37-1.09 64.68-0.82 63.76-0.82ZM70.86-7.87L72.53 0L73.72 0L74.88-4.74C74.94-5.04 75.01-5.34 75.08-5.63C75.15-5.93 75.21-6.22 75.28-6.53L75.32-6.53C75.39-6.22 75.45-5.93 75.51-5.63C75.57-5.34 75.64-5.04 75.71-4.74L76.90 0L78.10 0L79.73-7.87L78.77-7.87L77.94-3.59C77.86-3.16 77.78-2.74 77.71-2.32C77.64-1.90 77.57-1.48 77.50-1.04L77.45-1.04C77.35-1.48 77.26-1.90 77.16-2.33C77.06-2.75 76.97-3.17 76.87-3.59L75.78-7.87L74.87-7.87L73.78-3.59C73.69-3.16 73.60-2.74 73.50-2.32C73.40-1.90 73.31-1.48 73.22-1.04L73.18-1.04C73.10-1.48 73.03-1.90 72.95-2.32C72.87-2.73 72.79-3.16 72.72-3.59L71.89-7.87ZM81.10-7.87L81.10 0L82.09 0L82.09-7.87ZM84.25-7.87L84.25 0L88.69 0L88.69-0.85L85.25-0.85L85.25-7.87ZM90.08-7.87L90.08 0L94.52 0L94.52-0.85L91.08-0.85L91.08-7.87ZM98.34-7.87L98.34 0L103.00 0L103.00-0.85L99.34-0.85L99.34-3.71L102.32-3.71L102.32-4.56L99.34-4.56L99.34-7.03L102.88-7.03L102.88-7.87ZM106.06-4.07L103.76 0L104.82 0L105.96-2.12C106.06-2.32 106.16-2.51 106.26-2.72C106.36-2.92 106.47-3.14 106.58-3.38L106.63-3.38C106.76-3.14 106.88-2.92 106.99-2.72C107.09-2.51 107.20-2.32 107.30-2.12L108.46 0L109.56 0L107.27-4.02L109.42-7.87L108.36-7.87L107.32-5.86C107.22-5.67 107.13-5.49 107.05-5.32C106.96-5.15 106.86-4.95 106.75-4.72L106.70-4.72C106.58-4.95 106.48-5.15 106.39-5.32C106.29-5.49 106.20-5.67 106.09-5.86L105.02-7.87L103.92-7.87ZM110.82-7.87L110.82 0L111.82 0L111.82-3.12L113.23-3.12C113.66-3.12 114.06-3.17 114.41-3.27C114.77-3.37 115.08-3.52 115.33-3.72C115.59-3.92 115.79-4.17 115.93-4.48C116.07-4.78 116.14-5.14 116.14-5.56C116.14-5.99 116.07-6.35 115.93-6.65C115.79-6.94 115.59-7.18 115.34-7.36C115.09-7.54 114.78-7.67 114.42-7.75C114.06-7.83 113.66-7.87 113.23-7.87ZM113.11-3.94L111.82-3.94L111.82-7.07L113.11-7.07C113.79-7.07 114.30-6.96 114.64-6.74C114.97-6.52 115.14-6.12 115.14-5.56C115.14-5.00 114.97-4.59 114.64-4.33C114.31-4.07 113.80-3.94 113.11-3.94ZM120.48-3.20L118.12-3.20L118.49-4.40C118.63-4.84 118.77-5.28 118.90-5.72C119.02-6.15 119.15-6.60 119.27-7.06L119.32-7.06C119.44-6.60 119.57-6.15 119.70-5.72C119.83-5.28 119.96-4.84 120.11-4.40ZM120.73-2.40L121.48 0L122.54 0L119.88-7.87L118.75-7.87L116.09 0L117.11 0L117.86-2.40ZM123.66-7.87L123.66 0L124.61 0L124.61-4.12C124.61-4.53 124.59-4.95 124.57-5.36C124.54-5.77 124.51-6.18 124.48-6.58L124.52-6.58L125.38-4.96L128.23 0L129.26 0L129.26-7.87L128.32-7.87L128.32-3.80C128.32-3.39 128.33-2.97 128.36-2.54C128.39-2.11 128.41-1.70 128.44-1.30L128.39-1.30L127.54-2.93L124.69-7.87ZM131.42-7.87L131.42 0L133.44 0C134.03 0 134.56-0.09 135.01-0.27C135.47-0.45 135.85-0.71 136.16-1.05C136.48-1.39 136.71-1.81 136.87-2.30C137.03-2.79 137.11-3.35 137.11-3.97C137.11-5.23 136.80-6.19 136.16-6.86C135.53-7.54 134.61-7.87 133.39-7.87ZM133.32-0.82L132.42-0.82L132.42-7.06L133.32-7.06C134.24-7.06 134.93-6.79 135.39-6.26C135.85-5.74 136.08-4.97 136.08-3.97C136.08-2.97 135.85-2.20 135.39-1.64C134.93-1.09 134.24-0.82 133.32-0.82Z" transform="translate(0.012, 8.016)"></path></g></g></g></g><defs v-gra="od"></defs></g></svg>