<svg version="1.0" xmlns="http://www.w3.org/2000/svg" xmlns:xlink="http://www.w3.org/1999/xlink" x="0" y="0" width="2400" height="2400" viewBox="153.47141174316405 108.47141174316407 33.05717651367188 33.05717651367188" preserveAspectRatio="xMidYMid meet" color-interpolation-filters="sRGB"><g><defs><linearGradient id="92" x1="0%" y1="0%" x2="100%" y2="0%"><stop offset="0%" stop-color="#fa71cd"></stop> <stop offset="100%" stop-color="#9b59b6"></stop></linearGradient><linearGradient id="93" x1="0%" y1="0%" x2="100%" y2="0%"><stop offset="0%" stop-color="#f9d423"></stop> <stop offset="100%" stop-color="#f83600"></stop></linearGradient><linearGradient id="94" x1="0%" y1="0%" x2="100%" y2="0%"><stop offset="0%" stop-color="#0064d2"></stop> <stop offset="100%" stop-color="#1cb0f6"></stop></linearGradient><linearGradient id="95" x1="0%" y1="0%" x2="100%" y2="0%"><stop offset="0%" stop-color="#f00978"></stop> <stop offset="100%" stop-color="#3f51b1"></stop></linearGradient><linearGradient id="96" x1="0%" y1="0%" x2="100%" y2="0%"><stop offset="0%" stop-color="#7873f5"></stop> <stop offset="100%" stop-color="#ec77ab"></stop></linearGradient><linearGradient id="97" x1="0%" y1="0%" x2="100%" y2="0%"><stop offset="0%" stop-color="#f9d423"></stop> <stop offset="100%" stop-color="#e14fad"></stop></linearGradient><linearGradient id="98" x1="0%" y1="0%" x2="100%" y2="0%"><stop offset="0%" stop-color="#009efd"></stop> <stop offset="100%" stop-color="#2af598"></stop></linearGradient><linearGradient id="99" x1="0%" y1="0%" x2="100%" y2="0%"><stop offset="0%" stop-color="#ffcc00"></stop> <stop offset="100%" stop-color="#00b140"></stop></linearGradient><linearGradient id="100" x1="0%" y1="0%" x2="100%" y2="0%"><stop offset="0%" stop-color="#d51007"></stop> <stop offset="100%" stop-color="#ff8177"></stop></linearGradient><linearGradient id="102" x1="0%" y1="0%" x2="100%" y2="0%"><stop offset="0%" stop-color="#a2b6df"></stop> <stop offset="100%" stop-color="#0c3483"></stop></linearGradient><linearGradient id="103" x1="0%" y1="0%" x2="100%" y2="0%"><stop offset="0%" stop-color="#7ac5d8"></stop> <stop offset="100%" stop-color="#eea2a2"></stop></linearGradient><linearGradient id="104" x1="0%" y1="0%" x2="100%" y2="0%"><stop offset="0%" stop-color="#00ecbc"></stop> <stop offset="100%" stop-color="#007adf"></stop></linearGradient><linearGradient id="105" x1="0%" y1="0%" x2="100%" y2="0%"><stop offset="0%" stop-color="#b88746"></stop> <stop offset="100%" stop-color="#fdf5a6"></stop></linearGradient></defs><g class="imagesvg isNoFont" transform="translate(153.79550170898438,108.79550170898438)"><g><rect fill="#333" fill-opacity="0" stroke-width="2" x="0" y="0" width="32.40899809868216" height="32.40899809868216" class="image-rect"></rect> <svg x="0" y="0" width="32.40899809868216" height="32.40899809868216" filtersec="colorsb9036272927" class="image-svg-svg primary" style="overflow: visible;"><svg xmlns="http://www.w3.org/2000/svg" viewBox="0 -0.000003814697265625 112.33999633789062 112.34001159667969"><path d="M82.78 73.42a11.52 11.52 0 0 0-.82-17 11.72 11.72 0 0 0-15.69 1l-4.44 4.44-4.68 4.64a27.51 27.51 0 1 1-38.9-38.9l4.67-4.68A13.42 13.42 0 0 0 13.43 0 13.43 13.43 0 0 0 0 13.43v85.48a13.43 13.43 0 0 0 13.43 13.43H38.3a13.43 13.43 0 0 0 9.5-3.93z" fill="#15b788"></path><path d="M74 0a13.43 13.43 0 0 0-9.5 3.93l-35 35a11.51 11.51 0 0 0 16.34 16.26l4.67-4.68 4.27-4.26C65.36 35.66 82.6 35 93.5 45.26a27.53 27.53 0 0 1 .59 39.48l-4.67 4.68a13.42 13.42 0 0 0 9.49 22.92 13.43 13.43 0 0 0 13.43-13.43V13.43A13.43 13.43 0 0 0 98.91 0z" fill="#1395ba"></path></svg></svg> </g></g><defs v-gra="od"></defs></g></svg>